<svg xmlns="http://www.w3.org/2000/svg" width="215" height="147.316" viewBox="0 0 215 147.316"><defs><style>.a{fill:#161615;}.b{fill:#0099d9;isolation:isolate;}</style></defs><g transform="translate(-1543.819 -1085.358)"><g transform="translate(1543.819 1085.358)"><path class="a" d="M1556.424,1153.6l-2.908,2.566q-1.529-2.132-3.118-2.132a1.887,1.887,0,0,0-1.262.415,1.2,1.2,0,0,0-.492.931,1.588,1.588,0,0,0,.351.983,26.528,26.528,0,0,0,2.879,2.649q2.247,1.88,2.726,2.369a8.269,8.269,0,0,1,1.691,2.308,5.759,5.759,0,0,1,.5,2.406,5.513,5.513,0,0,1-1.755,4.192,6.4,6.4,0,0,1-4.574,1.654,6.8,6.8,0,0,1-3.84-1.079,8.534,8.534,0,0,1-2.8-3.395l3.3-1.99q1.489,2.734,3.427,2.734a2.518,2.518,0,0,0,1.7-.589,1.749,1.749,0,0,0,.689-1.359,2.35,2.35,0,0,0-.519-1.4,14.906,14.906,0,0,0-2.29-2.145,23.081,23.081,0,0,1-4.354-4.242,5.383,5.383,0,0,1-.985-2.979,4.874,4.874,0,0,1,1.637-3.682,5.67,5.67,0,0,1,4.035-1.535,6.368,6.368,0,0,1,2.941.715,10.712,10.712,0,0,1,3.025,2.609" transform="translate(-1543.819 -1024.925)"/><path class="a" d="M1553.226,1150.55h11.259v3.842h-7.361v3.729h7.361v3.772h-7.361v5.426h7.361v3.856h-11.259Z" transform="translate(-1535.062 -1024.675)"/><path class="a" d="M1568.791,1150.55h3.981l7.932,20.625h-4.08l-1.612-4.248h-8.418l-1.678,4.248h-4.08Zm2.014,5.468-2.767,7.08h5.518Z" transform="translate(-1527.979 -1024.675)"/><path class="b" d="M1605.144,1150.863l-2.553,1.96a13.989,13.989,0,0,0-5.074-4.173,14.86,14.86,0,0,0-6.505-1.419,14.379,14.379,0,0,0-7.177,1.86,13.354,13.354,0,0,0-5.119,5,13.823,13.823,0,0,0-1.817,7.055,13.238,13.238,0,0,0,4.063,9.884,14.069,14.069,0,0,0,10.249,3.964,14.409,14.409,0,0,0,11.381-5.329l2.553,1.937a16.311,16.311,0,0,1-6.044,4.767,18.967,18.967,0,0,1-8.089,1.684q-8.5,0-13.408-5.658a17.074,17.074,0,0,1-4.116-11.535,16.043,16.043,0,0,1,4.985-11.965,17.194,17.194,0,0,1,12.493-4.854,18.322,18.322,0,0,1,8.19,1.794,15.9,15.9,0,0,1,5.988,5.03" transform="translate(-1516.202 -1030.735)"/><path class="b" d="M1592.73,1150.55h3.926v16.882h5.721v3.744h-9.647Z" transform="translate(-1498.291 -1024.675)"/><path class="b" d="M1599.563,1150.55h11.259v3.842h-7.362v3.729h7.362v3.772h-7.362v5.426h7.362v3.856h-11.259Z" transform="translate(-1491.93 -1024.675)"/><path class="b" d="M1615.126,1150.55h3.983l7.932,20.625h-4.08l-1.614-4.248h-8.417l-1.678,4.248h-4.08Zm2.016,5.468-2.767,7.08h5.518Z" transform="translate(-1484.846 -1024.675)"/><path class="b" d="M1619.786,1150.55h3.767l8.825,13.573V1150.55h3.926v20.626h-3.777l-8.815-13.531v13.531h-3.926Z" transform="translate(-1473.105 -1024.675)"/><path class="b" d="M1631.532,1150.55h11.259v3.842h-7.362v3.729h7.362v3.772h-7.362v5.426h7.362v3.856h-11.259Z" transform="translate(-1462.172 -1024.675)"/><path class="b" d="M1640.141,1150.55h4.159a13.742,13.742,0,0,1,4.868.61,4.989,4.989,0,0,1,2.333,2.026,6.219,6.219,0,0,1,.88,3.352,5.716,5.716,0,0,1-.973,3.4,5.924,5.924,0,0,1-2.937,2.068l4.885,9.17h-4.291l-4.639-8.735h-.359v8.735h-3.925Zm3.925,8.061h1.23a4.808,4.808,0,0,0,2.58-.491,1.851,1.851,0,0,0,.707-1.633,2,2,0,0,0-.349-1.174,1.948,1.948,0,0,0-.936-.718,7.128,7.128,0,0,0-2.155-.219h-1.075Z" transform="translate(-1454.158 -1024.675)"/><path class="b" d="M1661.057,1153.6l-2.908,2.566q-1.532-2.132-3.118-2.132a1.9,1.9,0,0,0-1.265.415,1.2,1.2,0,0,0-.49.931,1.6,1.6,0,0,0,.349.983,27.049,27.049,0,0,0,2.881,2.649q2.247,1.88,2.724,2.369a8.28,8.28,0,0,1,1.693,2.308,5.759,5.759,0,0,1,.5,2.406,5.512,5.512,0,0,1-1.755,4.192,6.4,6.4,0,0,1-4.574,1.654,6.8,6.8,0,0,1-3.84-1.079,8.539,8.539,0,0,1-2.8-3.395l3.3-1.99q1.492,2.734,3.427,2.734a2.523,2.523,0,0,0,1.7-.589,1.749,1.749,0,0,0,.689-1.359,2.352,2.352,0,0,0-.519-1.4,15,15,0,0,0-2.29-2.145,23.086,23.086,0,0,1-4.354-4.242,5.381,5.381,0,0,1-.985-2.979,4.872,4.872,0,0,1,1.637-3.682,5.67,5.67,0,0,1,4.035-1.535,6.364,6.364,0,0,1,2.94.715,10.709,10.709,0,0,1,3.026,2.609" transform="translate(-1446.423 -1024.925)"/><path class="a" d="M1556.458,1144.97V1144h5.425v.969h-2.208v8.932h-1.01v-8.932Z" transform="translate(-1532.054 -1030.77)"/><path class="a" d="M1559.926,1143.872h.942v4.14a4,4,0,0,1,1.259-1.128,3.052,3.052,0,0,1,1.487-.373,2.6,2.6,0,0,1,1.458.417,2.481,2.481,0,0,1,.938,1.12,5.96,5.96,0,0,1,.3,2.205v3.769h-.942v-3.493a8.889,8.889,0,0,0-.1-1.69,1.928,1.928,0,0,0-.637-1.095,1.888,1.888,0,0,0-1.209-.367,2.329,2.329,0,0,0-1.531.565,2.662,2.662,0,0,0-.892,1.4,9.749,9.749,0,0,0-.134,1.993v2.686h-.942Z" transform="translate(-1528.826 -1030.891)"/><path class="a" d="M1570.617,1150.321l.794.415a4.339,4.339,0,0,1-.9,1.24,3.554,3.554,0,0,1-1.153.717,4.014,4.014,0,0,1-1.448.245,3.491,3.491,0,0,1-2.8-1.174,3.951,3.951,0,0,1-1.012-2.655,3.9,3.9,0,0,1,.855-2.483,3.5,3.5,0,0,1,2.9-1.386,3.614,3.614,0,0,1,2.991,1.419,3.981,3.981,0,0,1,.809,2.5h-6.59a2.98,2.98,0,0,0,.815,2.091,2.6,2.6,0,0,0,1.948.817,3.129,3.129,0,0,0,1.087-.195,2.859,2.859,0,0,0,.9-.516,4.423,4.423,0,0,0,.8-1.039m0-1.973a3.137,3.137,0,0,0-.55-1.2,2.59,2.59,0,0,0-.954-.726,2.923,2.923,0,0,0-1.245-.276,2.69,2.69,0,0,0-1.854.693,3.123,3.123,0,0,0-.855,1.514Z" transform="translate(-1524.945 -1029.619)"/><path class="b" d="M1694.136,1105.373a1.986,1.986,0,0,0-2.035.859c-.4.485.324.9,1.185,1.106s-.718,1.479-1.589,1.5-2.365-.774-3.687-.44-.141,1.5.533,1.691-.661.734-1.421,1.037-.321.17-3.355-.014-1.637,1.6-1.035,1.96-.516,1.649-1.821,1.649.421-1.041-3.429-1.091-2.342,2.016-1.871,2.481-1.068.919-1.562.9a28.9,28.9,0,0,0-3.912-.8c-2.226-.2-2.072,1.581-1.22,1.952s-.487,1.1-1.244,1.294.211-.558-1.745-1.2-3.2-.581-4.482.145.651,1.809,1.118,2.385-1.271,1.137-2.736.629-2.663-1.971-4.912-1.732-1.205,1.618-.495,2.317-1.423,1.257-2.272.886-1.052-1.473-3.893-1.815-1.943,1.477-1.222,1.952-.34,1.469-1.1,1.66-.662-1.29-4.46-2.34-3.106,1.072-1.913,2.014-1.286,1.377-2.615.653-2.191-2.5-6.825-1.811.006,2.228-.048,3.227c-.031.6-2.329.7-4.237.183-1.28-.347-2.021-1.158-3.143-1.608-2.8-1.12-6.387.114-4.213,1.317s-2.354.631-2.354.631a75.44,75.44,0,0,1-19.726-6.563c25.678.834,86.247-.089,106.5-25.668,0,0-5.719,9.5-6.574,10.407s-1.139.4-2.188.243" transform="translate(-1494.871 -1076.642)"/><path class="b" d="M1557.591,1149.49s45.837,1.877,59.43-40.293c0,0,11.276-1.8,12.093,8.824,0,0-.68,4.957-1.634,1.145-.655-2.614-2.126-3.6-3.921-3.76-1.746-.158-1.19,2.925.2,4.765s2.583,2.89,2.67,3.562-.4.541-1.722-.293-6.233-2.047-6.793-.846.039,3.228,4.769,6.213c1.323.836-1.417.942-2.51.452s-5.374-1.788-7.256.915,2.168,3.655,3.126,4.364-.562,2.141-2.132,1.3-4.642-2.472-5.723-.848,1.578,3.07,2.535,3.779-.786,1.483-1.88.992-3.033-2.089-4.68-1.49-2.6,2.116-.452,3.875-1.552,1.914-2.384,1.211-2.647-2.425-3.947-1.365-.359,2.1.711,3.035-1.95,1.67-3.138.618-4.238-2.155-4.7-.394.892,1.931.485,2.582-.882.867-1.828-.062-3.031-2.037-3.6-.614.533,1.693.616,2.475-.776,1.543-2.076.263-3.541-2.17-3.964-1.186.755,2.147.6,2.809-1.128.761-1.7-.154-3.255-2.5-3.7-1.187.421,1.463.272,1.9-1.506.461-1.966-.226-2.139-2.062-2.433-1.186.29,1.572-.568,1.313-1.807-1.023-2.558-.944-3.877.448-10.236-1.545" transform="translate(-1530.999 -1063.275)"/><path class="a" d="M1598.38,1109.777a95.5,95.5,0,0,0,20.2,4.958c12.184,1.734,27.924,1.844,42.546,20.874,0,0,.216,3.329,1.44,4.891,0,0-5.929-6.2-12.832-12.25-6.841-6-22.01-10.579-31.366-11.861s-19.28-5.918-19.986-6.613" transform="translate(-1493.031 -1062.628)"/><path class="a" d="M1594.879,1111.474a32.164,32.164,0,0,1,3.933,12.633c.835,7.718-.271,15.453,23.345,31.042,4.685,3.091,9.61,8.214,9.187,7.289a22.875,22.875,0,0,0-6.849-9.194c-4.991-4.329-16.883-12.178-20.347-19.56s-3.051-10.481-3.781-13.184-2.382-6.669-5.489-9.027" transform="translate(-1496.29 -1061.049)"/><path class="a" d="M1680.269,1085.36c-3.987.166-2.06,8.9-4.742,19.7-2.208,8.89-12.624,20-20.173,27.331-3.1.848-9.071-.778-13.031-.788-4.47-.013-11.577,5.872-14.838,9.906s.379,4.147,2.259,4.36a26.518,26.518,0,0,0,7.555-.071c2.813-.512,3.75-2.576,5.026-4.387s-2.06-3.284-4.115-3.676-3.395,1.7-4.541,2.95.145,1.1,2.091,1.027,2.53.187,1.313,1.612-1.141,1.355-3.927.95-2.622-.479-2.85-1.61,3.178-3.923,5.043-5.37a8.027,8.027,0,0,1,3.988-2.008c1.684-.419,6.445,1.84,8.034,2.927.545.375.662,2.274.487,2.962-5.54,6.484-8.5,13.149-8.832,18.022s3.638,11.608,4.636,10.929-3.823-5.491-3.146-11.128,2.342-6.9,13.539-18.893,21.475-27.812,24.271-33.705,5.939-21.2,1.954-21.038" transform="translate(-1467.156 -1085.358)"/><path class="a" d="M1663.751,1146.8c-2.58-.892-13.921-4.535-31.7-1.448s-54.1.07-67.383-4.09c-16.836-5.275-19.43-12.35-20.394-15.24s.96-4.443,2.263-3.251c3.661,3.346,16.136,14.224,28.831,17.431,12.2,3.084,27.036,4.353,42.517,3.265,2.641-1.8,3.085-8.5,4.833-12.035,1.913-3.869,13.186-5,19.82-4.678s4.644,3.13,4.105,4.918a16.424,16.424,0,0,1-3.352,6.465c-1.878,2.031-4.958,1.234-7.859.927s-3.7-4-3.319-6.08,4-1.939,6.115-1.956,1.691.977.761,2.6-1.18,2.331,1.193,2.389,2.248.069,2.925-2.651.655-2.919-.714-4-6.6-.021-9.283.463a6.214,6.214,0,0,0-4.553,2.582c-1.079,1.307-.166,6.292.56,8.509a2.231,2.231,0,0,0,.679.985,77.71,77.71,0,0,1,23.856-.068c8.673,1.419,14.825,4.061,18.19,7.271,2.819,2.694,5.4,5.914,11,6.932a3.837,3.837,0,0,1-2.593,1.475,31.633,31.633,0,0,1-9.139-6.424,21.873,21.873,0,0,0-7.362-4.294" transform="translate(-1543.639 -1050.912)"/><path class="a" d="M1566.3,1136.642s23.931,2.311,29.99.433c2.844-.882,3.69-9.863,1.618-9.449s-17.111,6.953-20.289,7.152c0,0,7.669-1.174,9.946-1.912s6-.768,6.3.581-5.75,3.117-27.565,3.2" transform="translate(-1522.895 -1046.027)"/><path class="a" d="M1637.607,1112.209c-1.736.854-2.371,2.572-.156,3s7.024,1.132,8.565.195,10.8-10.4,12.651-13.659c0,0-11.537,10.2-13.238,10.628s-3.56.351-3.526-.315,3.064-1.541,5.41-3.613a101.5,101.5,0,0,0-9.706,3.763" transform="translate(-1457.983 -1070.104)"/><path class="a" d="M1599.4,1127.638c-.093.021-.4,1.388-1.052,2.85-.728,1.637-1.793,3.392-1.768,3.487.021.071,4.116.2,7.03.716,4.327.761,8.044,1.96,8.125,1.815.133-.241-12.137-8.911-12.334-8.868" transform="translate(-1494.708 -1046.003)"/><path class="a" d="M1628.018,1118.313c-.253.209,1.5,1.479,3.053,3.26,1.4,1.6,2.958,4.706,3.24,4.686s.184-1.651,1.3-4.605a26.367,26.367,0,0,0,1.392-3.964,32.433,32.433,0,0,1-3.978.811c-2.131.162-4.881-.29-5-.187" transform="translate(-1465.466 -1055.278)"/><path class="a" d="M1652.38,1132.757c4.331.987,3.449,7.986,1.265,10.519-1.367,1.585-4.883,1.574-6.121,3.775.51,1.006,2.426,1.222,3.978.405a9.461,9.461,0,0,0,5.258-6.347,17.075,17.075,0,0,0,.477-4.335c-.164-1.044-.691-5.511-3.506-6.045-13.686-2.595-29.426,4.684-32.73,14.089q-.6,1.726-1.207,3.455a4.388,4.388,0,0,1-3.206,2.647,7.043,7.043,0,0,0-.905.467c3.852-.054,6.68.985,9.753,1.748a25.958,25.958,0,0,0,17.1-1.832c1.195-.535,1.413-1.269.7-1.775s-1.527-.444-2.7.215a18.792,18.792,0,0,1-13.562,2.081c-9.056-5.4,5.993-20.637,25.4-19.067" transform="translate(-1476.925 -1043.618)"/><path class="a" d="M1644.255,1131.7c4.452,2.558,19.216-.769,23.355,2.047s8.316,6.98,14.609,17.6c0,0-11.255-13.686-15.671-13.906-2.728-.137-5.381-.543-5.561,1.272s7.547,9.764,12.183,15.723c0,0-14.653-13.234-16.487-13.9s-4.787.224-5.3,1.655,14.8,17.237,13.837,16.881c-1.338-.492-18.629-14.3-19.963-14.564,0,0-2.525.336-2.649,2.483s2.746,7.667,14.225,18.262c0,0-20.529-13.464-21.674-19.751-.987-5.414,10.859-5.634,4.236-13.579-2.141-2.57-24.17-16.719-41.055-24.336-10.744-4.845-29.979.008-24.667-1.489,11.753-3.312,20.693-5.518,30.129.166,6.861,4.132,40.449,25.439,40.449,25.439" transform="translate(-1516.872 -1069.158)"/><path class="a" d="M1613,1124.965c-.108-1.647-7.337-6.945-13.431-10.822-.025-.016-.052,0-.042.025.427,1.185,6.578,9.37,6.578,18.42,0,0,7.173-5.462,6.9-7.623" transform="translate(-1491.965 -1058.57)"/><path class="a" d="M1629.114,1119.054s-13.466-4.416-22.294-5.078c0,0,7.394,5.794,9.712,6.181s5.517-1.325,12.582-1.1" transform="translate(-1485.175 -1058.72)"/><path class="a" d="M1621.86,1131.395c.444.776-.647,2.234-2.435,3.259s-3.6,1.224-4.043.448.647-2.234,2.435-3.258,3.6-1.226,4.043-.45" transform="translate(-1477.297 -1042.945)"/><path class="a" d="M1631.779,1127.647c.2.844-1.255,1.921-3.257,2.4s-3.792.193-4-.65,1.255-1.921,3.257-2.4,3.792-.193,4,.651" transform="translate(-1468.712 -1046.818)"/></g><path class="a" d="M1622.929,1145.871a.724.724,0,0,1-.034-1.448,27.8,27.8,0,0,0,14.57-5.044,54.528,54.528,0,0,0,6.345-5.58.724.724,0,0,1,1.014,1.033,56.157,56.157,0,0,1-6.518,5.727,29.3,29.3,0,0,1-15.339,5.312Z" transform="translate(72.965 44.899)"/><path class="a" d="M1625.616,1139.633a.724.724,0,0,1-.226-1.411,17.04,17.04,0,0,0,3.927-1.655c.238-.151.469-.315.7-.479a10.864,10.864,0,0,1,1.3-.836.722.722,0,1,1,.674,1.278,10.482,10.482,0,0,0-1.132.736c-.249.179-.5.357-.757.519a18.446,18.446,0,0,1-4.258,1.813A.692.692,0,0,1,1625.616,1139.633Z" transform="translate(75.466 46.362)"/></g></svg>